<?xml version="1.0" encoding="us-ascii" standalone="no"?><svg xmlns="http://www.w3.org/2000/svg" xmlns:xlink="http://www.w3.org/1999/xlink" contentStyleType="text/css" height="792px" preserveAspectRatio="none" style="width:558px;height:792px;background:#FFFFFF;" version="1.1" viewBox="0 0 558 792" width="558px" zoomAndPan="magnify"><defs/><g><rect fill="#F1F1F1" height="36.3887" rx="12.5" ry="12.5" style="stroke:#181818;stroke-width:0.5;" width="44" x="257" y="11"/><text fill="#000000" font-family="sans-serif" font-size="12" lengthAdjust="spacing" textLength="24" x="267" y="34.752">start</text><polygon fill="#F1F1F1" points="157.5,67.3887,410.5,67.3887,400.5,103.7773,147.5,103.7773" style="stroke:#181818;stroke-width:0.5;"/><text fill="#000000" font-family="sans-serif" font-size="12" font-weight="bold" lengthAdjust="spacing" textLength="28" x="157.5" y="91.1406">input</text><text fill="#000000" font-family="sans-serif" font-size="12" lengthAdjust="spacing" textLength="215" x="185.5" y="91.1406">: img1, img2, mask, kernel_size, sigma</text><rect fill="#F1F1F1" height="69.166" style="stroke:#181818;stroke-width:0.5;" width="536" x="11" y="123.7773"/><line style="stroke:#181818;stroke-width:0.5;" x1="16" x2="16" y1="123.7773" y2="192.9434"/><line style="stroke:#181818;stroke-width:0.5;" x1="542" x2="542" y1="123.7773" y2="192.9434"/><text fill="#000000" font-family="sans-serif" font-size="12" lengthAdjust="spacing" textLength="466" x="21" y="147.5293">[g_pyr1, l_pyr1] = generate_pyramids(img1, 'kernel_size', kernel_size, 'sigma', sigma)</text><text fill="#000000" font-family="sans-serif" font-size="12" lengthAdjust="spacing" textLength="466" x="21" y="163.918">[g_pyr2, l_pyr2] = generate_pyramids(img2, 'kernel_size', kernel_size, 'sigma', sigma)</text><text fill="#000000" font-family="sans-serif" font-size="12" lengthAdjust="spacing" textLength="516" x="21" y="180.3066">[g_mask_pyr l_mask_pyr]= generate_pyramids(mask, 'kernel_size',kernel_size,'sigma',sigma)</text><rect fill="#F1F1F1" height="36.3887" style="stroke:#181818;stroke-width:0.5;" width="103" x="227.5" y="212.9434"/><text fill="#000000" font-family="sans-serif" font-size="12" lengthAdjust="spacing" textLength="83" x="237.5" y="236.6953">N=size(g_pyr1)</text><rect fill="none" height="409.8307" style="stroke:#000000;stroke-width:1.5;" width="477" x="39" y="259.332"/><path d="M244,259.332 L244,271.4521 L234,281.4521 L39,281.4521 " fill="none" style="stroke:#000000;stroke-width:1.5;"/><text fill="#000000" font-family="sans-serif" font-size="14" lengthAdjust="spacing" textLength="195" x="42" y="276.376">Build Blend Pyramid With Mask</text><rect fill="#F1F1F1" height="36.3887" style="stroke:#181818;stroke-width:0.5;" width="92" x="233" y="298.4521"/><text fill="#000000" font-family="sans-serif" font-size="12" lengthAdjust="spacing" textLength="69" x="243" y="322.2041">blend_pyr={}</text><rect fill="#F1F1F1" height="36.3887" style="stroke:#181818;stroke-width:0.5;" width="43" x="257.5" y="354.8408"/><text fill="#000000" font-family="sans-serif" font-size="12" lengthAdjust="spacing" textLength="23" x="267.5" y="378.5928">i = 1</text><rect fill="#F1F1F1" height="36.3887" style="stroke:#181818;stroke-width:0.5;" width="412" x="73" y="474.2524"/><text fill="#000000" font-family="sans-serif" font-size="12" lengthAdjust="spacing" textLength="389" x="83" y="498.0044">blend_pyr(i,:) ={ g_mask_pyr{i}.*l_pyr1{i} + (1-g_mask_pyr{i}).*l_pyr2{i} }</text><rect fill="#F1F1F1" height="36.3887" style="stroke:#181818;stroke-width:0.5;" width="40" x="259" y="542.3854"/><text fill="#000000" font-family="sans-serif" font-size="12" lengthAdjust="spacing" textLength="17" x="269" y="566.1373">i++</text><polygon fill="#F1F1F1" points="279,411.2295,307.5,430.741,279,450.2524,250.5,430.741" style="stroke:#181818;stroke-width:0.5;"/><text fill="#000000" font-family="sans-serif" font-size="11" lengthAdjust="spacing" textLength="22" x="283" y="462.8584">True</text><text fill="#000000" font-family="sans-serif" font-size="11" lengthAdjust="spacing" textLength="33" x="262.5" y="435.8354">i &lt;= N?</text><text fill="#000000" font-family="sans-serif" font-size="11" lengthAdjust="spacing" textLength="26" x="224.5" y="420.8125">False</text><rect fill="#F1F1F1" height="36.3887" style="stroke:#181818;stroke-width:0.5;" width="247" x="155.5" y="620.774"/><line style="stroke:#181818;stroke-width:0.5;" x1="160.5" x2="160.5" y1="620.774" y2="657.1627"/><line style="stroke:#181818;stroke-width:0.5;" x1="397.5" x2="397.5" y1="620.774" y2="657.1627"/><text fill="#000000" font-family="sans-serif" font-size="12" lengthAdjust="spacing" textLength="224" x="165.5" y="644.526">output=rebuild_from_pyramid(blend_pyr)</text><polygon fill="#F1F1F1" points="238.5,689.1627,329.5,689.1627,319.5,725.5514,228.5,725.5514" style="stroke:#181818;stroke-width:0.5;"/><text fill="#000000" font-family="sans-serif" font-size="12" font-weight="bold" lengthAdjust="spacing" textLength="38" x="238.5" y="712.9147">Output</text><text fill="#000000" font-family="sans-serif" font-size="12" lengthAdjust="spacing" textLength="40" x="276.5" y="712.9147">: output</text><rect fill="#F1F1F1" height="36.3887" rx="12.5" ry="12.5" style="stroke:#181818;stroke-width:0.5;" width="41" x="258.5" y="745.5514"/><text fill="#000000" font-family="sans-serif" font-size="12" lengthAdjust="spacing" textLength="21" x="268.5" y="769.3033">end</text><line style="stroke:#181818;stroke-width:1.0;" x1="279" x2="279" y1="47.3887" y2="67.3887"/><polygon fill="#181818" points="275,57.3887,279,67.3887,283,57.3887,279,61.3887" style="stroke:#181818;stroke-width:1.0;"/><line style="stroke:#181818;stroke-width:1.0;" x1="279" x2="279" y1="103.7773" y2="123.7773"/><polygon fill="#181818" points="275,113.7773,279,123.7773,283,113.7773,279,117.7773" style="stroke:#181818;stroke-width:1.0;"/><line style="stroke:#181818;stroke-width:1.0;" x1="279" x2="279" y1="192.9434" y2="212.9434"/><polygon fill="#181818" points="275,202.9434,279,212.9434,283,202.9434,279,206.9434" style="stroke:#181818;stroke-width:1.0;"/><line style="stroke:#181818;stroke-width:1.0;" x1="279" x2="279" y1="334.8408" y2="354.8408"/><polygon fill="#181818" points="275,344.8408,279,354.8408,283,344.8408,279,348.8408" style="stroke:#181818;stroke-width:1.0;"/><line style="stroke:#181818;stroke-width:1.0;" x1="279" x2="279" y1="510.6411" y2="542.3854"/><polygon fill="#181818" points="275,532.3854,279,542.3854,283,532.3854,279,536.3854" style="stroke:#181818;stroke-width:1.0;"/><line style="stroke:#181818;stroke-width:1.0;" x1="279" x2="279" y1="450.2524" y2="474.2524"/><polygon fill="#181818" points="275,464.2524,279,474.2524,283,464.2524,279,468.2524" style="stroke:#181818;stroke-width:1.0;"/><line style="stroke:#181818;stroke-width:1.0;" x1="279" x2="279" y1="578.774" y2="588.774"/><line style="stroke:#181818;stroke-width:1.0;" x1="279" x2="497" y1="588.774" y2="588.774"/><polygon fill="#181818" points="493,522.3854,497,512.3854,501,522.3854,497,518.3854" style="stroke:#181818;stroke-width:1.0;"/><line style="stroke:#181818;stroke-width:1.0;" x1="497" x2="497" y1="430.741" y2="588.774"/><line style="stroke:#181818;stroke-width:1.0;" x1="497" x2="307.5" y1="430.741" y2="430.741"/><polygon fill="#181818" points="317.5,426.741,307.5,430.741,317.5,434.741,313.5,430.741" style="stroke:#181818;stroke-width:1.0;"/><line style="stroke:#181818;stroke-width:1.0;" x1="250.5" x2="61" y1="430.741" y2="430.741"/><polygon fill="#181818" points="57,508.3854,61,518.3854,65,508.3854,61,512.3854" style="stroke:#181818;stroke-width:1.0;"/><line style="stroke:#181818;stroke-width:1.0;" x1="61" x2="61" y1="430.741" y2="600.774"/><line style="stroke:#181818;stroke-width:1.0;" x1="61" x2="279" y1="600.774" y2="600.774"/><line style="stroke:#181818;stroke-width:1.0;" x1="279" x2="279" y1="600.774" y2="620.774"/><polygon fill="#181818" points="275,610.774,279,620.774,283,610.774,279,614.774" style="stroke:#181818;stroke-width:1.0;"/><line style="stroke:#181818;stroke-width:1.0;" x1="279" x2="279" y1="391.2295" y2="411.2295"/><polygon fill="#181818" points="275,401.2295,279,411.2295,283,401.2295,279,405.2295" style="stroke:#181818;stroke-width:1.0;"/><line style="stroke:#181818;stroke-width:1.0;" x1="279" x2="279" y1="249.332" y2="298.4521"/><polygon fill="#181818" points="275,288.4521,279,298.4521,283,288.4521,279,292.4521" style="stroke:#181818;stroke-width:1.0;"/><line style="stroke:#181818;stroke-width:1.0;" x1="279" x2="279" y1="657.1627" y2="689.1627"/><polygon fill="#181818" points="275,679.1627,279,689.1627,283,679.1627,279,683.1627" style="stroke:#181818;stroke-width:1.0;"/><line style="stroke:#181818;stroke-width:1.0;" x1="279" x2="279" y1="725.5514" y2="745.5514"/><polygon fill="#181818" points="275,735.5514,279,745.5514,283,735.5514,279,739.5514" style="stroke:#181818;stroke-width:1.0;"/><!--SRC=[bP9DJyCm38Rl-HM-DUqAqteCL4ZZG-B0G0A90rHJHaDdhKsd91KQtVuxITEE3S617bhNVlt4TgnNADTSyGhUQfcZmLe-caqfu5PgpCKLyihwYTxBBWVPjSozSbcY58GmRRWoPuH5aTKs9eeOO5LCOlTEOgYuNiMm4agASgxnKyIWiQZusAQ-5FFrHbbfsNqpIA4GKYXkX7Fm2dDDFImu80G_U44737fm-2ezD-cvoP_SvFzSruvZMFHWPh_HVTl7z4FumFReBM6prFcfdqYO4MBdRhg9mxJ1CeTfAMGE3_u0U4QpX3jx2BG4xCCMBkoIqtO7cVUXRNpYxOybsZkZ2ESfp2v2G0tqIJKYxAB718en2o5juRlT5dUdaRybQy88wEJaA1hsuSI5Xm9y4QDH_slnVHatlDJzqQnkZ5sRL8c5QtF-hkfg62FTbnJ2bkpSZjrtQhTaFW_6X5dDsHS0]--></g></svg>