<?xml version="1.0" encoding="us-ascii" standalone="no"?><svg xmlns="http://www.w3.org/2000/svg" xmlns:xlink="http://www.w3.org/1999/xlink" contentStyleType="text/css" height="3033px" preserveAspectRatio="none" style="width:514px;height:3033px;background:#FFFFFF;" version="1.1" viewBox="0 0 514 3033" width="514px" zoomAndPan="magnify"><defs/><g><rect fill="#F1F1F1" height="36.3887" rx="12.5" ry="12.5" style="stroke:#181818;stroke-width:0.5;" width="44" x="235" y="11"/><text fill="#000000" font-family="sans-serif" font-size="12" lengthAdjust="spacing" textLength="24" x="245" y="34.752">start</text><polygon fill="#F1F1F1" points="174.5,67.3887,349.5,67.3887,339.5,103.7773,164.5,103.7773" style="stroke:#181818;stroke-width:0.5;"/><text fill="#000000" font-family="sans-serif" font-size="12" font-weight="bold" lengthAdjust="spacing" textLength="28" x="174.5" y="91.1406">input</text><text fill="#000000" font-family="sans-serif" font-size="12" lengthAdjust="spacing" textLength="137" x="202.5" y="91.1406">: img, kernel_size, sigma</text><rect fill="none" height="414.4751" style="stroke:#000000;stroke-width:1.5;" width="441" x="36.5" y="113.7773"/><path d="M119.5,113.7773 L119.5,125.8975 L109.5,135.8975 L36.5,135.8975 " fill="none" style="stroke:#000000;stroke-width:1.5;"/><text fill="#000000" font-family="sans-serif" font-size="14" lengthAdjust="spacing" textLength="73" x="39.5" y="130.8213">Initial Setup</text><rect fill="#F1F1F1" height="36.3887" style="stroke:#181818;stroke-width:0.5;" width="161" x="176.5" y="215.9204"/><text fill="#000000" font-family="sans-serif" font-size="12" lengthAdjust="spacing" textLength="141" x="186.5" y="239.6724">img = double(img) / 255.0</text><polygon fill="#F1F1F1" points="257,152.8975,325,172.4089,257,191.9204,189,172.4089" style="stroke:#181818;stroke-width:0.5;"/><text fill="#000000" font-family="sans-serif" font-size="11" lengthAdjust="spacing" textLength="22" x="261" y="204.5264">True</text><text fill="#000000" font-family="sans-serif" font-size="11" lengthAdjust="spacing" textLength="112" x="201" y="177.5034">img value type is uint8?</text><rect fill="#F1F1F1" height="36.3887" style="stroke:#181818;stroke-width:0.5;" width="129" x="192.5" y="294.3091"/><text fill="#000000" font-family="sans-serif" font-size="12" lengthAdjust="spacing" textLength="106" x="202.5" y="318.061">[m, n, c] = size(img)</text><rect fill="#F1F1F1" height="36.3887" style="stroke:#181818;stroke-width:0.5;" width="160" x="177" y="350.6978"/><text fill="#000000" font-family="sans-serif" font-size="12" lengthAdjust="spacing" textLength="137" x="187" y="374.4497">max_n = ceil(log2(m) - 3)</text><rect fill="#F1F1F1" height="52.7773" style="stroke:#181818;stroke-width:0.5;" width="120" x="197" y="407.0864"/><text fill="#000000" font-family="sans-serif" font-size="12" lengthAdjust="spacing" textLength="100" x="207" y="430.8384">g_pyramid = {img}</text><text fill="#000000" font-family="sans-serif" font-size="12" lengthAdjust="spacing" textLength="75" x="207" y="447.2271">l_pyramid = {}</text><rect fill="#F1F1F1" height="36.3887" style="stroke:#181818;stroke-width:0.5;" width="421" x="46.5" y="479.8638"/><text fill="#000000" font-family="sans-serif" font-size="12" lengthAdjust="spacing" textLength="398" x="56.5" y="503.6157">gaussian_kernel = fspecial('gaussian', [kernel_size, kernel_size], sigma)</text><rect fill="none" height="736.4185" style="stroke:#000000;stroke-width:1.5;" width="492" x="11" y="538.2524"/><path d="M183,538.2524 L183,550.3726 L173,560.3726 L11,560.3726 " fill="none" style="stroke:#000000;stroke-width:1.5;"/><text fill="#000000" font-family="sans-serif" font-size="14" lengthAdjust="spacing" textLength="162" x="14" y="555.2964">Pyramid Generation Loop</text><rect fill="#F1F1F1" height="36.3887" rx="12.5" ry="12.5" style="stroke:#181818;stroke-width:0.5;" width="43" x="235.5" y="577.3726"/><text fill="#000000" font-family="sans-serif" font-size="12" lengthAdjust="spacing" textLength="23" x="245.5" y="601.1245">i = 1</text><rect fill="#F1F1F1" height="36.3887" style="stroke:#181818;stroke-width:0.5;" width="396" x="59" y="696.7842"/><text fill="#000000" font-family="sans-serif" font-size="12" lengthAdjust="spacing" textLength="373" x="69" y="720.5361">img_blur = imfilter(img, gaussian_kernel, "replicate", "same", "conv")</text><rect fill="#F1F1F1" height="36.3887" style="stroke:#181818;stroke-width:0.5;" width="326" x="94" y="753.1729"/><text fill="#000000" font-family="sans-serif" font-size="12" lengthAdjust="spacing" textLength="303" x="104" y="776.9248">img_downsampled = imresize(img_blur, 0.5, "nearest")</text><rect fill="#F1F1F1" height="36.3887" style="stroke:#181818;stroke-width:0.5;" width="172" x="171" y="809.5615"/><text fill="#000000" font-family="sans-serif" font-size="12" lengthAdjust="spacing" textLength="149" x="181" y="833.3135">upsample_size = size(img)</text><rect fill="#F1F1F1" height="36.3887" style="stroke:#181818;stroke-width:0.5;" width="231" x="141.5" y="865.9502"/><text fill="#000000" font-family="sans-serif" font-size="12" lengthAdjust="spacing" textLength="208" x="151.5" y="889.7021">upsample_size = upsample_size(1:2)</text><rect fill="#F1F1F1" height="36.3887" style="stroke:#181818;stroke-width:0.5;" width="436" x="39" y="922.3389"/><text fill="#000000" font-family="sans-serif" font-size="12" lengthAdjust="spacing" textLength="413" x="49" y="946.0908">img_upsampled = imresize(img_downsampled, upsample_size, "nearest")</text><rect fill="#F1F1F1" height="36.3887" style="stroke:#181818;stroke-width:0.5;" width="240" x="137" y="978.7275"/><text fill="#000000" font-family="sans-serif" font-size="12" lengthAdjust="spacing" textLength="217" x="147" y="1002.4795">g_pyramid(i + 1) = {img_downsampled}</text><rect fill="#F1F1F1" height="36.3887" style="stroke:#181818;stroke-width:0.5;" width="231" x="141.5" y="1035.1162"/><text fill="#000000" font-family="sans-serif" font-size="12" lengthAdjust="spacing" textLength="208" x="151.5" y="1058.8682">l_pyramid(i) = {img - img_upsampled}</text><rect fill="#F1F1F1" height="36.3887" style="stroke:#181818;stroke-width:0.5;" width="164" x="175" y="1091.5049"/><text fill="#000000" font-family="sans-serif" font-size="12" lengthAdjust="spacing" textLength="141" x="185" y="1115.2568">img = img_downsampled</text><rect fill="#F1F1F1" height="36.3887" style="stroke:#181818;stroke-width:0.5;" width="40" x="237" y="1147.8936"/><text fill="#000000" font-family="sans-serif" font-size="12" lengthAdjust="spacing" textLength="17" x="247" y="1171.6455">i++</text><polygon fill="#F1F1F1" points="257,633.7612,298,653.2727,257,672.7842,216,653.2727" style="stroke:#181818;stroke-width:0.5;"/><text fill="#000000" font-family="sans-serif" font-size="11" lengthAdjust="spacing" textLength="22" x="261" y="685.3901">True</text><text fill="#000000" font-family="sans-serif" font-size="11" lengthAdjust="spacing" textLength="58" x="228" y="658.3672">i &lt;= max_n?</text><text fill="#000000" font-family="sans-serif" font-size="11" lengthAdjust="spacing" textLength="26" x="190" y="643.3442">False</text><rect fill="#F1F1F1" height="36.3887" style="stroke:#181818;stroke-width:0.5;" width="184" x="165" y="1226.2822"/><text fill="#000000" font-family="sans-serif" font-size="12" lengthAdjust="spacing" textLength="161" x="175" y="1250.0342">l_pyramid(max_n + 1) = {img}</text><polygon fill="#F1F1F1" points="170.5,1294.6709,353.5,1294.6709,343.5,1331.0596,160.5,1331.0596" style="stroke:#181818;stroke-width:0.5;"/><text fill="#000000" font-family="sans-serif" font-size="12" font-weight="bold" lengthAdjust="spacing" textLength="38" x="170.5" y="1318.4229">Output</text><text fill="#000000" font-family="sans-serif" font-size="12" lengthAdjust="spacing" textLength="132" x="208.5" y="1318.4229">: {g_pyramid, l_pyramid}</text><rect fill="none" height="1624.8673" style="stroke:#000000;stroke-width:1.5;" width="457" x="27" y="1341.0596"/><path d="M180,1341.0596 L180,1353.1797 L170,1363.1797 L27,1363.1797 " fill="none" style="stroke:#000000;stroke-width:1.5;"/><text fill="#000000" font-family="sans-serif" font-size="14" lengthAdjust="spacing" textLength="143" x="30" y="1358.1035">Display Image Pyramid</text><rect fill="#F1F1F1" height="36.3887" style="stroke:#181818;stroke-width:0.5;" width="73" x="220.5" y="1380.1797"/><text fill="#000000" font-family="sans-serif" font-size="12" lengthAdjust="spacing" textLength="53" x="230.5" y="1403.9316">margin=2</text><rect fill="#F1F1F1" height="36.3887" style="stroke:#181818;stroke-width:0.5;" width="116" x="199" y="1436.5684"/><text fill="#000000" font-family="sans-serif" font-size="12" lengthAdjust="spacing" textLength="93" x="209" y="1460.3203">N = size(imgs, 1)</text><rect fill="none" height="635.3854" style="stroke:#000000;stroke-width:1.5;" width="437" x="37" y="1482.957"/><path d="M229,1482.957 L229,1495.0771 L219,1505.0771 L37,1505.0771 " fill="none" style="stroke:#000000;stroke-width:1.5;"/><text fill="#000000" font-family="sans-serif" font-size="14" lengthAdjust="spacing" textLength="182" x="40" y="1500.001">concatenate_image_pyramid</text><rect fill="#F1F1F1" height="36.3887" style="stroke:#181818;stroke-width:0.5;" width="151" x="181.5" y="1522.0771"/><text fill="#000000" font-family="sans-serif" font-size="12" lengthAdjust="spacing" textLength="128" x="191.5" y="1545.8291">[m, n, c] = size(imgs{1})</text><rect fill="#F1F1F1" height="36.3887" style="stroke:#181818;stroke-width:0.5;" width="345" x="84.5" y="1578.4658"/><text fill="#000000" font-family="sans-serif" font-size="12" lengthAdjust="spacing" textLength="322" x="94.5" y="1602.2178">Initialize canvas with zeros of size [m ceil(n*1.5 + margin) c]</text><rect fill="#F1F1F1" height="36.3887" style="stroke:#181818;stroke-width:0.5;" width="231" x="141.5" y="1634.8545"/><text fill="#000000" font-family="sans-serif" font-size="12" lengthAdjust="spacing" textLength="208" x="151.5" y="1658.6064">Place imgs{1} in the leftside of canvas</text><rect fill="#F1F1F1" height="36.3887" style="stroke:#181818;stroke-width:0.5;" width="58" x="228" y="1691.2432"/><text fill="#000000" font-family="sans-serif" font-size="12" lengthAdjust="spacing" textLength="38" x="238" y="1714.9951">pm = 1</text><rect fill="#F1F1F1" height="36.3887" style="stroke:#181818;stroke-width:0.5;" width="126" x="194" y="1747.6318"/><text fill="#000000" font-family="sans-serif" font-size="12" lengthAdjust="spacing" textLength="106" x="204" y="1771.3838">pn = n + 1 + margin</text><rect fill="#F1F1F1" height="36.3887" style="stroke:#181818;stroke-width:0.5;" width="147" x="183.5" y="1867.0435"/><text fill="#000000" font-family="sans-serif" font-size="12" lengthAdjust="spacing" textLength="124" x="193.5" y="1890.7954">[m, n, c] = size(imgs{i})</text><rect fill="#F1F1F1" height="36.3887" style="stroke:#181818;stroke-width:0.5;" width="372" x="71" y="1923.4321"/><text fill="#000000" font-family="sans-serif" font-size="12" lengthAdjust="spacing" textLength="349" x="81" y="1947.1841">Place imgs{i} in canvas at position [pm:pm+m-1, pn:pn+n-1, 1:c]</text><rect fill="#F1F1F1" height="36.3887" style="stroke:#181818;stroke-width:0.5;" width="139" x="187.5" y="1991.5651"/><text fill="#000000" font-family="sans-serif" font-size="12" lengthAdjust="spacing" textLength="116" x="197.5" y="2015.317">Update pm = pm + m</text><rect fill="#F1F1F1" height="36.3887" style="stroke:#181818;stroke-width:0.5;" width="40" x="237" y="2047.9537"/><text fill="#000000" font-family="sans-serif" font-size="12" lengthAdjust="spacing" textLength="17" x="247" y="2071.7057">i++</text><polygon fill="#F1F1F1" points="257,1804.0205,310,1823.532,257,1843.0435,204,1823.532" style="stroke:#181818;stroke-width:0.5;"/><text fill="#000000" font-family="sans-serif" font-size="11" lengthAdjust="spacing" textLength="22" x="261" y="1855.6494">True</text><text fill="#000000" font-family="sans-serif" font-size="11" lengthAdjust="spacing" textLength="82" x="216" y="1828.6265">i &lt;= size(imgs, 1)</text><text fill="#000000" font-family="sans-serif" font-size="11" lengthAdjust="spacing" textLength="26" x="178" y="1813.6035">False</text><rect fill="#F1F1F1" height="36.3887" style="stroke:#181818;stroke-width:0.5;" width="148" x="183" y="2138.3424"/><text fill="#000000" font-family="sans-serif" font-size="12" lengthAdjust="spacing" textLength="128" x="193" y="2162.0944">[ch, cw, ] = size(canvas)</text><rect fill="#F1F1F1" height="36.3887" style="stroke:#181818;stroke-width:0.5;" width="153" x="180.5" y="2194.7311"/><text fill="#000000" font-family="sans-serif" font-size="12" lengthAdjust="spacing" textLength="133" x="190.5" y="2218.483">margin = margin / N / cw</text><rect fill="#F1F1F1" height="36.3887" style="stroke:#181818;stroke-width:0.5;" width="90" x="212" y="2251.1198"/><text fill="#000000" font-family="sans-serif" font-size="12" lengthAdjust="spacing" textLength="70" x="222" y="2274.8717">pm = margin</text><rect fill="#F1F1F1" height="36.3887" style="stroke:#181818;stroke-width:0.5;" width="101" x="206.5" y="2307.5084"/><text fill="#000000" font-family="sans-serif" font-size="12" lengthAdjust="spacing" textLength="81" x="216.5" y="2331.2604">Create a figure</text><rect fill="none" height="430.8638" style="stroke:#000000;stroke-width:1.5;" width="405" x="53" y="2353.8971"/><path d="M309,2353.8971 L309,2366.0172 L299,2376.0172 L53,2376.0172 " fill="none" style="stroke:#000000;stroke-width:1.5;"/><text fill="#000000" font-family="sans-serif" font-size="14" lengthAdjust="spacing" textLength="246" x="56" y="2370.941">Display First Row with Resolution Texts</text><rect fill="#F1F1F1" height="36.3887" style="stroke:#181818;stroke-width:0.5;" width="213" x="150.5" y="2456.0402"/><text fill="#000000" font-family="sans-serif" font-size="12" lengthAdjust="spacing" textLength="190" x="160.5" y="2479.7921">subplot('Position', [pm 0.8 1/N 0.2])</text><rect fill="#F1F1F1" height="36.3887" style="stroke:#181818;stroke-width:0.5;" width="123" x="195.5" y="2512.4288"/><text fill="#000000" font-family="sans-serif" font-size="12" lengthAdjust="spacing" textLength="100" x="205.5" y="2536.1808">imshow(imgs{i},[])</text><rect fill="#F1F1F1" height="69.166" style="stroke:#181818;stroke-width:0.5;" width="340" x="87" y="2568.8175"/><text fill="#000000" font-family="sans-serif" font-size="12" lengthAdjust="spacing" textLength="269" x="97" y="2592.5695">text(0.5, -0.2, sprintf( '%dx%d', size(imgs{i},[1 2]) ),</text><text fill="#000000" font-family="sans-serif" font-size="12" lengthAdjust="spacing" textLength="314" x="100" y="2608.9581">'HorizontalAlignment', 'center', 'VerticalAlignment', 'bottom',</text><text fill="#000000" font-family="sans-serif" font-size="12" lengthAdjust="spacing" textLength="238" x="97" y="2625.3468">'FontSize', 10, 'Color', 'k', 'Units','normalized')</text><rect fill="#F1F1F1" height="36.3887" style="stroke:#181818;stroke-width:0.5;" width="153" x="180.5" y="2657.9835"/><text fill="#000000" font-family="sans-serif" font-size="12" lengthAdjust="spacing" textLength="133" x="190.5" y="2681.7355">pm = pm + 1/N + margin</text><rect fill="#F1F1F1" height="36.3887" style="stroke:#181818;stroke-width:0.5;" width="37" x="238.5" y="2714.3722"/><text fill="#000000" font-family="sans-serif" font-size="12" lengthAdjust="spacing" textLength="17" x="248.5" y="2738.1241">i++</text><polygon fill="#F1F1F1" points="257,2393.0172,282.5,2412.5287,257,2432.0402,231.5,2412.5287" style="stroke:#181818;stroke-width:0.5;"/><text fill="#000000" font-family="sans-serif" font-size="11" lengthAdjust="spacing" textLength="22" x="261" y="2444.6461">True</text><text fill="#000000" font-family="sans-serif" font-size="11" lengthAdjust="spacing" textLength="27" x="243.5" y="2417.6232">i &lt;= N</text><text fill="#000000" font-family="sans-serif" font-size="11" lengthAdjust="spacing" textLength="26" x="205.5" y="2402.6002">False</text><rect fill="#F1F1F1" height="36.3887" style="stroke:#181818;stroke-width:0.5;" width="330" x="92" y="2804.7609"/><text fill="#000000" font-family="sans-serif" font-size="12" lengthAdjust="spacing" textLength="307" x="102" y="2828.5128">subplot('Position', [margin margin 1-margin 0.8-margin])</text><rect fill="#F1F1F1" height="36.3887" style="stroke:#181818;stroke-width:0.5;" width="123" x="195.5" y="2861.1495"/><text fill="#000000" font-family="sans-serif" font-size="12" lengthAdjust="spacing" textLength="100" x="205.5" y="2884.9015">imshow(canvas,[])</text><rect fill="#F1F1F1" height="36.3887" style="stroke:#181818;stroke-width:0.5;" width="241" x="136.5" y="2917.5382"/><text fill="#000000" font-family="sans-serif" font-size="12" lengthAdjust="spacing" textLength="218" x="146.5" y="2941.2902">set(gcf, 'Position', [100, 100, cw, ch*1.3])</text><rect fill="#F1F1F1" height="36.3887" rx="12.5" ry="12.5" style="stroke:#181818;stroke-width:0.5;" width="41" x="236.5" y="2985.9269"/><text fill="#000000" font-family="sans-serif" font-size="12" lengthAdjust="spacing" textLength="21" x="246.5" y="3009.6788">end</text><line style="stroke:#181818;stroke-width:1.0;" x1="257" x2="257" y1="47.3887" y2="67.3887"/><polygon fill="#181818" points="253,57.3887,257,67.3887,261,57.3887,257,61.3887" style="stroke:#181818;stroke-width:1.0;"/><line style="stroke:#181818;stroke-width:1.0;" x1="257" x2="257" y1="191.9204" y2="215.9204"/><polygon fill="#181818" points="253,205.9204,257,215.9204,261,205.9204,257,209.9204" style="stroke:#181818;stroke-width:1.0;"/><line style="stroke:#181818;stroke-width:1.0;" x1="325" x2="347.5" y1="172.4089" y2="172.4089"/><line style="stroke:#181818;stroke-width:1.0;" x1="347.5" x2="347.5" y1="172.4089" y2="274.3091"/><polygon fill="#181818" points="343.5,264.3091,347.5,274.3091,351.5,264.3091,347.5,268.3091" style="stroke:#181818;stroke-width:1.0;"/><line style="stroke:#181818;stroke-width:1.0;" x1="347.5" x2="257" y1="274.3091" y2="274.3091"/><line style="stroke:#181818;stroke-width:1.0;" x1="257" x2="257" y1="274.3091" y2="279.3091"/><line style="stroke:#181818;stroke-width:1.0;" x1="257" x2="257" y1="252.3091" y2="274.3091"/><polygon fill="#181818" points="253,264.3091,257,274.3091,261,264.3091,257,268.3091" style="stroke:#181818;stroke-width:1.0;"/><line style="stroke:#181818;stroke-width:1.0;" x1="257" x2="257" y1="279.3091" y2="294.3091"/><polygon fill="#181818" points="253,284.3091,257,294.3091,261,284.3091,257,288.3091" style="stroke:#181818;stroke-width:1.0;"/><line style="stroke:#181818;stroke-width:1.0;" x1="257" x2="257" y1="330.6978" y2="350.6978"/><polygon fill="#181818" points="253,340.6978,257,350.6978,261,340.6978,257,344.6978" style="stroke:#181818;stroke-width:1.0;"/><line style="stroke:#181818;stroke-width:1.0;" x1="257" x2="257" y1="387.0864" y2="407.0864"/><polygon fill="#181818" points="253,397.0864,257,407.0864,261,397.0864,257,401.0864" style="stroke:#181818;stroke-width:1.0;"/><line style="stroke:#181818;stroke-width:1.0;" x1="257" x2="257" y1="459.8638" y2="479.8638"/><polygon fill="#181818" points="253,469.8638,257,479.8638,261,469.8638,257,473.8638" style="stroke:#181818;stroke-width:1.0;"/><line style="stroke:#181818;stroke-width:1.0;" x1="257" x2="257" y1="103.7773" y2="152.8975"/><polygon fill="#181818" points="253,142.8975,257,152.8975,261,142.8975,257,146.8975" style="stroke:#181818;stroke-width:1.0;"/><line style="stroke:#181818;stroke-width:1.0;" x1="257" x2="257" y1="733.1729" y2="753.1729"/><polygon fill="#181818" points="253,743.1729,257,753.1729,261,743.1729,257,747.1729" style="stroke:#181818;stroke-width:1.0;"/><line style="stroke:#181818;stroke-width:1.0;" x1="257" x2="257" y1="789.5615" y2="809.5615"/><polygon fill="#181818" points="253,799.5615,257,809.5615,261,799.5615,257,803.5615" style="stroke:#181818;stroke-width:1.0;"/><line style="stroke:#181818;stroke-width:1.0;" x1="257" x2="257" y1="845.9502" y2="865.9502"/><polygon fill="#181818" points="253,855.9502,257,865.9502,261,855.9502,257,859.9502" style="stroke:#181818;stroke-width:1.0;"/><line style="stroke:#181818;stroke-width:1.0;" x1="257" x2="257" y1="902.3389" y2="922.3389"/><polygon fill="#181818" points="253,912.3389,257,922.3389,261,912.3389,257,916.3389" style="stroke:#181818;stroke-width:1.0;"/><line style="stroke:#181818;stroke-width:1.0;" x1="257" x2="257" y1="958.7275" y2="978.7275"/><polygon fill="#181818" points="253,968.7275,257,978.7275,261,968.7275,257,972.7275" style="stroke:#181818;stroke-width:1.0;"/><line style="stroke:#181818;stroke-width:1.0;" x1="257" x2="257" y1="1015.1162" y2="1035.1162"/><polygon fill="#181818" points="253,1025.1162,257,1035.1162,261,1025.1162,257,1029.1162" style="stroke:#181818;stroke-width:1.0;"/><line style="stroke:#181818;stroke-width:1.0;" x1="257" x2="257" y1="1071.5049" y2="1091.5049"/><polygon fill="#181818" points="253,1081.5049,257,1091.5049,261,1081.5049,257,1085.5049" style="stroke:#181818;stroke-width:1.0;"/><line style="stroke:#181818;stroke-width:1.0;" x1="257" x2="257" y1="1127.8936" y2="1147.8936"/><polygon fill="#181818" points="253,1137.8936,257,1147.8936,261,1137.8936,257,1141.8936" style="stroke:#181818;stroke-width:1.0;"/><line style="stroke:#181818;stroke-width:1.0;" x1="257" x2="257" y1="672.7842" y2="696.7842"/><polygon fill="#181818" points="253,686.7842,257,696.7842,261,686.7842,257,690.7842" style="stroke:#181818;stroke-width:1.0;"/><line style="stroke:#181818;stroke-width:1.0;" x1="257" x2="257" y1="1184.2822" y2="1194.2822"/><line style="stroke:#181818;stroke-width:1.0;" x1="257" x2="487" y1="1194.2822" y2="1194.2822"/><polygon fill="#181818" points="483,934.7775,487,924.7775,491,934.7775,487,930.7775" style="stroke:#181818;stroke-width:1.0;"/><line style="stroke:#181818;stroke-width:1.0;" x1="487" x2="487" y1="653.2727" y2="1194.2822"/><line style="stroke:#181818;stroke-width:1.0;" x1="487" x2="298" y1="653.2727" y2="653.2727"/><polygon fill="#181818" points="308,649.2727,298,653.2727,308,657.2727,304,653.2727" style="stroke:#181818;stroke-width:1.0;"/><line style="stroke:#181818;stroke-width:1.0;" x1="216" x2="27" y1="653.2727" y2="653.2727"/><polygon fill="#181818" points="23,920.7775,27,930.7775,31,920.7775,27,924.7775" style="stroke:#181818;stroke-width:1.0;"/><line style="stroke:#181818;stroke-width:1.0;" x1="27" x2="27" y1="653.2727" y2="1206.2822"/><line style="stroke:#181818;stroke-width:1.0;" x1="27" x2="257" y1="1206.2822" y2="1206.2822"/><line style="stroke:#181818;stroke-width:1.0;" x1="257" x2="257" y1="1206.2822" y2="1226.2822"/><polygon fill="#181818" points="253,1216.2822,257,1226.2822,261,1216.2822,257,1220.2822" style="stroke:#181818;stroke-width:1.0;"/><line style="stroke:#181818;stroke-width:1.0;" x1="257" x2="257" y1="613.7612" y2="633.7612"/><polygon fill="#181818" points="253,623.7612,257,633.7612,261,623.7612,257,627.7612" style="stroke:#181818;stroke-width:1.0;"/><line style="stroke:#181818;stroke-width:1.0;" x1="257" x2="257" y1="516.2524" y2="577.3726"/><polygon fill="#181818" points="253,567.3726,257,577.3726,261,567.3726,257,571.3726" style="stroke:#181818;stroke-width:1.0;"/><line style="stroke:#181818;stroke-width:1.0;" x1="257" x2="257" y1="1262.6709" y2="1294.6709"/><polygon fill="#181818" points="253,1284.6709,257,1294.6709,261,1284.6709,257,1288.6709" style="stroke:#181818;stroke-width:1.0;"/><line style="stroke:#181818;stroke-width:1.0;" x1="257" x2="257" y1="1416.5684" y2="1436.5684"/><polygon fill="#181818" points="253,1426.5684,257,1436.5684,261,1426.5684,257,1430.5684" style="stroke:#181818;stroke-width:1.0;"/><line style="stroke:#181818;stroke-width:1.0;" x1="257" x2="257" y1="1558.4658" y2="1578.4658"/><polygon fill="#181818" points="253,1568.4658,257,1578.4658,261,1568.4658,257,1572.4658" style="stroke:#181818;stroke-width:1.0;"/><line style="stroke:#181818;stroke-width:1.0;" x1="257" x2="257" y1="1614.8545" y2="1634.8545"/><polygon fill="#181818" points="253,1624.8545,257,1634.8545,261,1624.8545,257,1628.8545" style="stroke:#181818;stroke-width:1.0;"/><line style="stroke:#181818;stroke-width:1.0;" x1="257" x2="257" y1="1671.2432" y2="1691.2432"/><polygon fill="#181818" points="253,1681.2432,257,1691.2432,261,1681.2432,257,1685.2432" style="stroke:#181818;stroke-width:1.0;"/><line style="stroke:#181818;stroke-width:1.0;" x1="257" x2="257" y1="1727.6318" y2="1747.6318"/><polygon fill="#181818" points="253,1737.6318,257,1747.6318,261,1737.6318,257,1741.6318" style="stroke:#181818;stroke-width:1.0;"/><line style="stroke:#181818;stroke-width:1.0;" x1="257" x2="257" y1="1903.4321" y2="1923.4321"/><polygon fill="#181818" points="253,1913.4321,257,1923.4321,261,1913.4321,257,1917.4321" style="stroke:#181818;stroke-width:1.0;"/><line style="stroke:#181818;stroke-width:1.0;" x1="257" x2="257" y1="1959.8208" y2="1991.5651"/><polygon fill="#181818" points="253,1981.5651,257,1991.5651,261,1981.5651,257,1985.5651" style="stroke:#181818;stroke-width:1.0;"/><line style="stroke:#181818;stroke-width:1.0;" x1="257" x2="257" y1="2027.9537" y2="2047.9537"/><polygon fill="#181818" points="253,2037.9537,257,2047.9537,261,2037.9537,257,2041.9537" style="stroke:#181818;stroke-width:1.0;"/><line style="stroke:#181818;stroke-width:1.0;" x1="257" x2="257" y1="1843.0435" y2="1867.0435"/><polygon fill="#181818" points="253,1857.0435,257,1867.0435,261,1857.0435,257,1861.0435" style="stroke:#181818;stroke-width:1.0;"/><line style="stroke:#181818;stroke-width:1.0;" x1="257" x2="257" y1="2084.3424" y2="2094.3424"/><line style="stroke:#181818;stroke-width:1.0;" x1="257" x2="455" y1="2094.3424" y2="2094.3424"/><polygon fill="#181818" points="451,1971.5651,455,1961.5651,459,1971.5651,455,1967.5651" style="stroke:#181818;stroke-width:1.0;"/><line style="stroke:#181818;stroke-width:1.0;" x1="455" x2="455" y1="1823.532" y2="2094.3424"/><line style="stroke:#181818;stroke-width:1.0;" x1="455" x2="310" y1="1823.532" y2="1823.532"/><polygon fill="#181818" points="320,1819.532,310,1823.532,320,1827.532,316,1823.532" style="stroke:#181818;stroke-width:1.0;"/><line style="stroke:#181818;stroke-width:1.0;" x1="204" x2="59" y1="1823.532" y2="1823.532"/><polygon fill="#181818" points="55,1957.5651,59,1967.5651,63,1957.5651,59,1961.5651" style="stroke:#181818;stroke-width:1.0;"/><line style="stroke:#181818;stroke-width:1.0;" x1="59" x2="59" y1="1823.532" y2="2106.3424"/><line style="stroke:#181818;stroke-width:1.0;" x1="59" x2="257" y1="2106.3424" y2="2106.3424"/><line style="stroke:#181818;stroke-width:1.0;" x1="257" x2="257" y1="2106.3424" y2="2138.3424"/><polygon fill="#181818" points="253,2128.3424,257,2138.3424,261,2128.3424,257,2132.3424" style="stroke:#181818;stroke-width:1.0;"/><line style="stroke:#181818;stroke-width:1.0;" x1="257" x2="257" y1="1784.0205" y2="1804.0205"/><polygon fill="#181818" points="253,1794.0205,257,1804.0205,261,1794.0205,257,1798.0205" style="stroke:#181818;stroke-width:1.0;"/><line style="stroke:#181818;stroke-width:1.0;" x1="257" x2="257" y1="1472.957" y2="1522.0771"/><polygon fill="#181818" points="253,1512.0771,257,1522.0771,261,1512.0771,257,1516.0771" style="stroke:#181818;stroke-width:1.0;"/><line style="stroke:#181818;stroke-width:1.0;" x1="257" x2="257" y1="2174.7311" y2="2194.7311"/><polygon fill="#181818" points="253,2184.7311,257,2194.7311,261,2184.7311,257,2188.7311" style="stroke:#181818;stroke-width:1.0;"/><line style="stroke:#181818;stroke-width:1.0;" x1="257" x2="257" y1="2231.1198" y2="2251.1198"/><polygon fill="#181818" points="253,2241.1198,257,2251.1198,261,2241.1198,257,2245.1198" style="stroke:#181818;stroke-width:1.0;"/><line style="stroke:#181818;stroke-width:1.0;" x1="257" x2="257" y1="2287.5084" y2="2307.5084"/><polygon fill="#181818" points="253,2297.5084,257,2307.5084,261,2297.5084,257,2301.5084" style="stroke:#181818;stroke-width:1.0;"/><line style="stroke:#181818;stroke-width:1.0;" x1="257" x2="257" y1="2492.4288" y2="2512.4288"/><polygon fill="#181818" points="253,2502.4288,257,2512.4288,261,2502.4288,257,2506.4288" style="stroke:#181818;stroke-width:1.0;"/><line style="stroke:#181818;stroke-width:1.0;" x1="257" x2="257" y1="2548.8175" y2="2568.8175"/><polygon fill="#181818" points="253,2558.8175,257,2568.8175,261,2558.8175,257,2562.8175" style="stroke:#181818;stroke-width:1.0;"/><line style="stroke:#181818;stroke-width:1.0;" x1="257" x2="257" y1="2637.9835" y2="2657.9835"/><polygon fill="#181818" points="253,2647.9835,257,2657.9835,261,2647.9835,257,2651.9835" style="stroke:#181818;stroke-width:1.0;"/><line style="stroke:#181818;stroke-width:1.0;" x1="257" x2="257" y1="2694.3722" y2="2714.3722"/><polygon fill="#181818" points="253,2704.3722,257,2714.3722,261,2704.3722,257,2708.3722" style="stroke:#181818;stroke-width:1.0;"/><line style="stroke:#181818;stroke-width:1.0;" x1="257" x2="257" y1="2432.0402" y2="2456.0402"/><polygon fill="#181818" points="253,2446.0402,257,2456.0402,261,2446.0402,257,2450.0402" style="stroke:#181818;stroke-width:1.0;"/><line style="stroke:#181818;stroke-width:1.0;" x1="257" x2="257" y1="2750.7609" y2="2760.7609"/><line style="stroke:#181818;stroke-width:1.0;" x1="257" x2="439" y1="2760.7609" y2="2760.7609"/><polygon fill="#181818" points="435,2597.6448,439,2587.6448,443,2597.6448,439,2593.6448" style="stroke:#181818;stroke-width:1.0;"/><line style="stroke:#181818;stroke-width:1.0;" x1="439" x2="439" y1="2412.5287" y2="2760.7609"/><line style="stroke:#181818;stroke-width:1.0;" x1="439" x2="282.5" y1="2412.5287" y2="2412.5287"/><polygon fill="#181818" points="292.5,2408.5287,282.5,2412.5287,292.5,2416.5287,288.5,2412.5287" style="stroke:#181818;stroke-width:1.0;"/><line style="stroke:#181818;stroke-width:1.0;" x1="231.5" x2="75" y1="2412.5287" y2="2412.5287"/><polygon fill="#181818" points="71,2583.6448,75,2593.6448,79,2583.6448,75,2587.6448" style="stroke:#181818;stroke-width:1.0;"/><line style="stroke:#181818;stroke-width:1.0;" x1="75" x2="75" y1="2412.5287" y2="2772.7609"/><line style="stroke:#181818;stroke-width:1.0;" x1="75" x2="257" y1="2772.7609" y2="2772.7609"/><line style="stroke:#181818;stroke-width:1.0;" x1="257" x2="257" y1="2772.7609" y2="2804.7609"/><polygon fill="#181818" points="253,2794.7609,257,2804.7609,261,2794.7609,257,2798.7609" style="stroke:#181818;stroke-width:1.0;"/><line style="stroke:#181818;stroke-width:1.0;" x1="257" x2="257" y1="2343.8971" y2="2393.0172"/><polygon fill="#181818" points="253,2383.0172,257,2393.0172,261,2383.0172,257,2387.0172" style="stroke:#181818;stroke-width:1.0;"/><line style="stroke:#181818;stroke-width:1.0;" x1="257" x2="257" y1="2841.1495" y2="2861.1495"/><polygon fill="#181818" points="253,2851.1495,257,2861.1495,261,2851.1495,257,2855.1495" style="stroke:#181818;stroke-width:1.0;"/><line style="stroke:#181818;stroke-width:1.0;" x1="257" x2="257" y1="2897.5382" y2="2917.5382"/><polygon fill="#181818" points="253,2907.5382,257,2917.5382,261,2907.5382,257,2911.5382" style="stroke:#181818;stroke-width:1.0;"/><line style="stroke:#181818;stroke-width:1.0;" x1="257" x2="257" y1="1331.0596" y2="1380.1797"/><polygon fill="#181818" points="253,1370.1797,257,1380.1797,261,1370.1797,257,1374.1797" style="stroke:#181818;stroke-width:1.0;"/><line style="stroke:#181818;stroke-width:1.0;" x1="257" x2="257" y1="2953.9269" y2="2985.9269"/><polygon fill="#181818" points="253,2975.9269,257,2985.9269,261,2975.9269,257,2979.9269" style="stroke:#181818;stroke-width:1.0;"/><!--SRC=[ZLLjQziw5FwUNt4e33k9syOPXU6kZ4jtU-zWT6NTxfSi1DMM7L5PCfRSj0tURxz7ikpOINgvWKIozPotvpn7KOzC5AGaESHI94mpAUxr2wVmHIYMqC-CvFX-f3hOTGlxKoGDSisPeADHf3GfzUKecamGM-d990AMPm4yqb9GlbBibGQWM9QJyz48dMdh1WFXIZZSKrqLi1q1VbWAFjh24-4L1VrIK60AAYRqXqzZq6igmFzHLdHiqUOJ6VWL9B9wuDJOZk4SvXSNPxEbnL3CEhMxQ94780A8buWtIJNe1XRbv7aby22cZFjSPdC_7yCflEy0sQfuGHvOWg0jMjQ_1E-_gZiWgPHYHAoQ-l4iLGMDiLJVQy-y01O3UdeFIqUMYLpt2RjpmVwYWfR4llegPKjTn31IU6dtcpN3_lWCFbw1BGp9GnwFKBTwu5M9XYnF6TUqz6tdzae8uAIa1MSnqVG47nJ9xOhAUJff2Uey9d8Z455mcbZ79Mt9ji42c9rTeB6W14_qqBug6ajBn94s7GKDdlqmcX-ar28E4khb6Wpzl9LX9mDaTmhXsAcXxwdku_aEts9HLeEawhrqRP937lk0wHGwQRj6tn2kN6Dx0Hj9zvAihQ9mJhzLsWtgjgidWCwo1XpKdl0-CrLmyW9VSfBHJeRRKJivPSR4rTp9_xRNDXMOuCt1pXtAnYX9u7V5ZCjkZBQxCeyDgzg6zQ0PxWenCeY9U28ADaoluPMMKe5ChI4iycQenIGykq0wcdp7ndNFrHqdCGKN19Wmbmrmccfp6nfVBi3EP6TRv6RqUiuASvDOwhjukzF-S0w8EZQZ_y456t2nNmIpHRYaYOP2geRzHP5ZmjFyD0oW49ZgL9Xj60tuiEv-5Wds26nv-8Ebx2DsOdnJaBMxVECrLh09u7TNHPFSUDcN4Lmvll0MlyLll777Dea-bT5rIKrs15AMLINTLrahsXjMAWtVvQRHndUg9AyiuWTzrcfxj2-tR_P2LGy5bzhtxXoXvYh7v6Pd7o0ylyLrlZpe2ylLMcxQjWMBGuJ6N7nxCPwY1_m7A4hyqqjzyDubp-yIBnWqFbY4OCAC0_WbmFjRbknL2atu7vnb8gT2eu4NuqfBi_k78Ylntl63r5hcdd7XtQ3rFGR0ft26PzUIIslvQ7v-ufWfB_24B7CxRObtKC1E98Q5GzMtSlb_QZdAiXE6My9Jjq7ctRQZjIMyKLYFxqXHxMTnYaNrFOUpcIbyrYWqNkDDyTxQu7K94IPw-Iy0]--></g></svg>