<?xml version="1.0" encoding="us-ascii" standalone="no"?><svg xmlns="http://www.w3.org/2000/svg" xmlns:xlink="http://www.w3.org/1999/xlink" contentStyleType="text/css" height="1252px" preserveAspectRatio="none" style="width:508px;height:1252px;background:#FFFFFF;" version="1.1" viewBox="0 0 508 1252" width="508px" zoomAndPan="magnify"><defs/><g><rect fill="#F1F1F1" height="36.3887" rx="12.5" ry="12.5" style="stroke:#181818;stroke-width:0.5;" width="44" x="232" y="11"/><text fill="#000000" font-family="sans-serif" font-size="12" lengthAdjust="spacing" textLength="24" x="242" y="34.752">start</text><polygon fill="#F1F1F1" points="143.5,67.3887,374.5,67.3887,364.5,103.7773,133.5,103.7773" style="stroke:#181818;stroke-width:0.5;"/><text fill="#000000" font-family="sans-serif" font-size="12" font-weight="bold" lengthAdjust="spacing" textLength="28" x="143.5" y="91.1406">input</text><text fill="#000000" font-family="sans-serif" font-size="12" lengthAdjust="spacing" textLength="193" x="171.5" y="91.1406">: img1, img2, N, kernel_size, sigma</text><rect fill="#F1F1F1" height="52.7773" style="stroke:#181818;stroke-width:0.5;" width="486" x="11" y="123.7773"/><line style="stroke:#181818;stroke-width:0.5;" x1="16" x2="16" y1="123.7773" y2="176.5547"/><line style="stroke:#181818;stroke-width:0.5;" x1="492" x2="492" y1="123.7773" y2="176.5547"/><text fill="#000000" font-family="sans-serif" font-size="12" lengthAdjust="spacing" textLength="466" x="21" y="147.5293">[g_pyr1, l_pyr1] = generate_pyramids(img1, 'kernel_size', kernel_size, 'sigma', sigma)</text><text fill="#000000" font-family="sans-serif" font-size="12" lengthAdjust="spacing" textLength="466" x="21" y="163.918">[g_pyr2, l_pyr2] = generate_pyramids(img2, 'kernel_size', kernel_size, 'sigma', sigma)</text><rect fill="#F1F1F1" height="36.3887" style="stroke:#181818;stroke-width:0.5;" width="189" x="159.5" y="196.5547"/><text fill="#000000" font-family="sans-serif" font-size="12" lengthAdjust="spacing" textLength="166" x="169.5" y="220.3066">hybrid_pyr = cell(size(g_pyr1));</text><rect fill="#F1F1F1" height="36.3887" style="stroke:#181818;stroke-width:0.5;" width="147" x="180.5" y="315.9663"/><text fill="#000000" font-family="sans-serif" font-size="12" lengthAdjust="spacing" textLength="124" x="190.5" y="339.7183">hybrid_pyr{i} = l_pyr2{i}</text><rect fill="#F1F1F1" height="36.3887" style="stroke:#181818;stroke-width:0.5;" width="37" x="235.5" y="384.0992"/><text fill="#000000" font-family="sans-serif" font-size="12" lengthAdjust="spacing" textLength="17" x="245.5" y="407.8512">i++</text><polygon fill="#F1F1F1" points="254,252.9434,284.5,272.4548,254,291.9663,223.5,272.4548" style="stroke:#181818;stroke-width:0.5;"/><text fill="#000000" font-family="sans-serif" font-size="11" lengthAdjust="spacing" textLength="22" x="258" y="304.5723">True</text><text fill="#000000" font-family="sans-serif" font-size="11" lengthAdjust="spacing" textLength="37" x="235.5" y="277.5493">i &lt;= N-1</text><text fill="#000000" font-family="sans-serif" font-size="11" lengthAdjust="spacing" textLength="26" x="197.5" y="262.5264">False</text><rect fill="#F1F1F1" height="36.3887" style="stroke:#181818;stroke-width:0.5;" width="151" x="178.5" y="525.5109"/><text fill="#000000" font-family="sans-serif" font-size="12" lengthAdjust="spacing" textLength="128" x="188.5" y="549.2628">hybrid_pyr{i} = g_pyr1{i}</text><rect fill="#F1F1F1" height="36.3887" style="stroke:#181818;stroke-width:0.5;" width="37" x="235.5" y="593.6438"/><text fill="#000000" font-family="sans-serif" font-size="12" lengthAdjust="spacing" textLength="17" x="245.5" y="617.3958">i++</text><polygon fill="#F1F1F1" points="254,462.4879,311.5,481.9994,254,501.5109,196.5,481.9994" style="stroke:#181818;stroke-width:0.5;"/><text fill="#000000" font-family="sans-serif" font-size="11" lengthAdjust="spacing" textLength="22" x="258" y="514.1168">True</text><text fill="#000000" font-family="sans-serif" font-size="11" lengthAdjust="spacing" textLength="91" x="208.5" y="487.0939">i &lt;= length(g_pyr1)</text><text fill="#000000" font-family="sans-serif" font-size="11" lengthAdjust="spacing" textLength="26" x="170.5" y="472.0709">False</text><rect fill="none" height="466.2194" style="stroke:#000000;stroke-width:1.5;" width="395" x="55" y="662.0325"/><path d="M205,662.0325 L205,674.1526 L195,684.1526 L55,684.1526 " fill="none" style="stroke:#000000;stroke-width:1.5;"/><text fill="#000000" font-family="sans-serif" font-size="14" lengthAdjust="spacing" textLength="140" x="58" y="679.0764">Rebuild From Pyramid</text><rect fill="#F1F1F1" height="36.3887" style="stroke:#181818;stroke-width:0.5;" width="103" x="202.5" y="701.1526"/><text fill="#000000" font-family="sans-serif" font-size="12" lengthAdjust="spacing" textLength="80" x="212.5" y="724.9045">output = pyr{N}</text><rect fill="#F1F1F1" height="36.3887" style="stroke:#181818;stroke-width:0.5;" width="50" x="229" y="757.5413"/><text fill="#000000" font-family="sans-serif" font-size="12" lengthAdjust="spacing" textLength="30" x="239" y="781.2932">i=N-1</text><rect fill="#F1F1F1" height="36.3887" style="stroke:#181818;stroke-width:0.5;" width="160" x="174" y="876.9529"/><text fill="#000000" font-family="sans-serif" font-size="12" lengthAdjust="spacing" textLength="137" x="184" y="900.7048">upscale_size=size(pyr{i})</text><rect fill="#F1F1F1" height="36.3887" style="stroke:#181818;stroke-width:0.5;" width="201" x="153.5" y="933.3416"/><text fill="#000000" font-family="sans-serif" font-size="12" lengthAdjust="spacing" textLength="178" x="163.5" y="957.0935">upscale_size=upscale_size(1:2)</text><rect fill="#F1F1F1" height="36.3887" style="stroke:#181818;stroke-width:0.5;" width="330" x="89" y="1001.4745"/><text fill="#000000" font-family="sans-serif" font-size="12" lengthAdjust="spacing" textLength="307" x="99" y="1025.2264">output = imresize(output, upscale_size, 'nearest') + pyr{i}</text><rect fill="#F1F1F1" height="36.3887" style="stroke:#181818;stroke-width:0.5;" width="31" x="238.5" y="1057.8632"/><text fill="#000000" font-family="sans-serif" font-size="12" lengthAdjust="spacing" textLength="11" x="248.5" y="1081.6151">i--</text><polygon fill="#F1F1F1" points="254,813.9299,279,833.4414,254,852.9529,229,833.4414" style="stroke:#181818;stroke-width:0.5;"/><text fill="#000000" font-family="sans-serif" font-size="11" lengthAdjust="spacing" textLength="22" x="258" y="865.5588">True</text><text fill="#000000" font-family="sans-serif" font-size="11" lengthAdjust="spacing" textLength="26" x="241" y="838.5359">i &gt;= 1</text><text fill="#000000" font-family="sans-serif" font-size="11" lengthAdjust="spacing" textLength="26" x="203" y="823.5129">False</text><polygon fill="#F1F1F1" points="215,1148.2518,303,1148.2518,293,1184.6405,205,1184.6405" style="stroke:#181818;stroke-width:0.5;"/><text fill="#000000" font-family="sans-serif" font-size="12" font-weight="bold" lengthAdjust="spacing" textLength="38" x="215" y="1172.0038">Output</text><text fill="#000000" font-family="sans-serif" font-size="12" lengthAdjust="spacing" textLength="40" x="253" y="1172.0038">: output</text><rect fill="#F1F1F1" height="36.3887" rx="12.5" ry="12.5" style="stroke:#181818;stroke-width:0.5;" width="41" x="233.5" y="1204.6405"/><text fill="#000000" font-family="sans-serif" font-size="12" lengthAdjust="spacing" textLength="21" x="243.5" y="1228.3925">end</text><line style="stroke:#181818;stroke-width:1.0;" x1="254" x2="254" y1="47.3887" y2="67.3887"/><polygon fill="#181818" points="250,57.3887,254,67.3887,258,57.3887,254,61.3887" style="stroke:#181818;stroke-width:1.0;"/><line style="stroke:#181818;stroke-width:1.0;" x1="254" x2="254" y1="103.7773" y2="123.7773"/><polygon fill="#181818" points="250,113.7773,254,123.7773,258,113.7773,254,117.7773" style="stroke:#181818;stroke-width:1.0;"/><line style="stroke:#181818;stroke-width:1.0;" x1="254" x2="254" y1="176.5547" y2="196.5547"/><polygon fill="#181818" points="250,186.5547,254,196.5547,258,186.5547,254,190.5547" style="stroke:#181818;stroke-width:1.0;"/><line style="stroke:#181818;stroke-width:1.0;" x1="254" x2="254" y1="352.355" y2="384.0992"/><polygon fill="#181818" points="250,374.0992,254,384.0992,258,374.0992,254,378.0992" style="stroke:#181818;stroke-width:1.0;"/><line style="stroke:#181818;stroke-width:1.0;" x1="254" x2="254" y1="291.9663" y2="315.9663"/><polygon fill="#181818" points="250,305.9663,254,315.9663,258,305.9663,254,309.9663" style="stroke:#181818;stroke-width:1.0;"/><line style="stroke:#181818;stroke-width:1.0;" x1="254" x2="254" y1="420.4879" y2="430.4879"/><line style="stroke:#181818;stroke-width:1.0;" x1="254" x2="339.5" y1="430.4879" y2="430.4879"/><polygon fill="#181818" points="335.5,364.0992,339.5,354.0992,343.5,364.0992,339.5,360.0992" style="stroke:#181818;stroke-width:1.0;"/><line style="stroke:#181818;stroke-width:1.0;" x1="339.5" x2="339.5" y1="272.4548" y2="430.4879"/><line style="stroke:#181818;stroke-width:1.0;" x1="339.5" x2="284.5" y1="272.4548" y2="272.4548"/><polygon fill="#181818" points="294.5,268.4548,284.5,272.4548,294.5,276.4548,290.5,272.4548" style="stroke:#181818;stroke-width:1.0;"/><line style="stroke:#181818;stroke-width:1.0;" x1="223.5" x2="168.5" y1="272.4548" y2="272.4548"/><polygon fill="#181818" points="164.5,350.0992,168.5,360.0992,172.5,350.0992,168.5,354.0992" style="stroke:#181818;stroke-width:1.0;"/><line style="stroke:#181818;stroke-width:1.0;" x1="168.5" x2="168.5" y1="272.4548" y2="442.4879"/><line style="stroke:#181818;stroke-width:1.0;" x1="168.5" x2="254" y1="442.4879" y2="442.4879"/><line style="stroke:#181818;stroke-width:1.0;" x1="254" x2="254" y1="442.4879" y2="462.4879"/><polygon fill="#181818" points="250,452.4879,254,462.4879,258,452.4879,254,456.4879" style="stroke:#181818;stroke-width:1.0;"/><line style="stroke:#181818;stroke-width:1.0;" x1="254" x2="254" y1="232.9434" y2="252.9434"/><polygon fill="#181818" points="250,242.9434,254,252.9434,258,242.9434,254,246.9434" style="stroke:#181818;stroke-width:1.0;"/><line style="stroke:#181818;stroke-width:1.0;" x1="254" x2="254" y1="561.8995" y2="593.6438"/><polygon fill="#181818" points="250,583.6438,254,593.6438,258,583.6438,254,587.6438" style="stroke:#181818;stroke-width:1.0;"/><line style="stroke:#181818;stroke-width:1.0;" x1="254" x2="254" y1="501.5109" y2="525.5109"/><polygon fill="#181818" points="250,515.5109,254,525.5109,258,515.5109,254,519.5109" style="stroke:#181818;stroke-width:1.0;"/><line style="stroke:#181818;stroke-width:1.0;" x1="254" x2="254" y1="630.0325" y2="640.0325"/><line style="stroke:#181818;stroke-width:1.0;" x1="254" x2="341.5" y1="640.0325" y2="640.0325"/><polygon fill="#181818" points="337.5,573.6438,341.5,563.6438,345.5,573.6438,341.5,569.6438" style="stroke:#181818;stroke-width:1.0;"/><line style="stroke:#181818;stroke-width:1.0;" x1="341.5" x2="341.5" y1="481.9994" y2="640.0325"/><line style="stroke:#181818;stroke-width:1.0;" x1="341.5" x2="311.5" y1="481.9994" y2="481.9994"/><polygon fill="#181818" points="321.5,477.9994,311.5,481.9994,321.5,485.9994,317.5,481.9994" style="stroke:#181818;stroke-width:1.0;"/><line style="stroke:#181818;stroke-width:1.0;" x1="196.5" x2="166.5" y1="481.9994" y2="481.9994"/><polygon fill="#181818" points="162.5,559.6438,166.5,569.6438,170.5,559.6438,166.5,563.6438" style="stroke:#181818;stroke-width:1.0;"/><line style="stroke:#181818;stroke-width:1.0;" x1="166.5" x2="166.5" y1="481.9994" y2="652.0325"/><line style="stroke:#181818;stroke-width:1.0;" x1="166.5" x2="254" y1="652.0325" y2="652.0325"/><line style="stroke:#181818;stroke-width:1.0;" x1="254" x2="254" y1="652.0325" y2="701.1526"/><polygon fill="#181818" points="250,691.1526,254,701.1526,258,691.1526,254,695.1526" style="stroke:#181818;stroke-width:1.0;"/><line style="stroke:#181818;stroke-width:1.0;" x1="254" x2="254" y1="737.5413" y2="757.5413"/><polygon fill="#181818" points="250,747.5413,254,757.5413,258,747.5413,254,751.5413" style="stroke:#181818;stroke-width:1.0;"/><line style="stroke:#181818;stroke-width:1.0;" x1="254" x2="254" y1="913.3416" y2="933.3416"/><polygon fill="#181818" points="250,923.3416,254,933.3416,258,923.3416,254,927.3416" style="stroke:#181818;stroke-width:1.0;"/><line style="stroke:#181818;stroke-width:1.0;" x1="254" x2="254" y1="969.7302" y2="1001.4745"/><polygon fill="#181818" points="250,991.4745,254,1001.4745,258,991.4745,254,995.4745" style="stroke:#181818;stroke-width:1.0;"/><line style="stroke:#181818;stroke-width:1.0;" x1="254" x2="254" y1="1037.8632" y2="1057.8632"/><polygon fill="#181818" points="250,1047.8632,254,1057.8632,258,1047.8632,254,1051.8632" style="stroke:#181818;stroke-width:1.0;"/><line style="stroke:#181818;stroke-width:1.0;" x1="254" x2="254" y1="852.9529" y2="876.9529"/><polygon fill="#181818" points="250,866.9529,254,876.9529,258,866.9529,254,870.9529" style="stroke:#181818;stroke-width:1.0;"/><line style="stroke:#181818;stroke-width:1.0;" x1="254" x2="254" y1="1094.2518" y2="1104.2518"/><line style="stroke:#181818;stroke-width:1.0;" x1="254" x2="431" y1="1104.2518" y2="1104.2518"/><polygon fill="#181818" points="427,981.4745,431,971.4745,435,981.4745,431,977.4745" style="stroke:#181818;stroke-width:1.0;"/><line style="stroke:#181818;stroke-width:1.0;" x1="431" x2="431" y1="833.4414" y2="1104.2518"/><line style="stroke:#181818;stroke-width:1.0;" x1="431" x2="279" y1="833.4414" y2="833.4414"/><polygon fill="#181818" points="289,829.4414,279,833.4414,289,837.4414,285,833.4414" style="stroke:#181818;stroke-width:1.0;"/><line style="stroke:#181818;stroke-width:1.0;" x1="229" x2="77" y1="833.4414" y2="833.4414"/><polygon fill="#181818" points="73,967.4745,77,977.4745,81,967.4745,77,971.4745" style="stroke:#181818;stroke-width:1.0;"/><line style="stroke:#181818;stroke-width:1.0;" x1="77" x2="77" y1="833.4414" y2="1116.2518"/><line style="stroke:#181818;stroke-width:1.0;" x1="77" x2="254" y1="1116.2518" y2="1116.2518"/><line style="stroke:#181818;stroke-width:1.0;" x1="254" x2="254" y1="1116.2518" y2="1148.2518"/><polygon fill="#181818" points="250,1138.2518,254,1148.2518,258,1138.2518,254,1142.2518" style="stroke:#181818;stroke-width:1.0;"/><line style="stroke:#181818;stroke-width:1.0;" x1="254" x2="254" y1="793.9299" y2="813.9299"/><polygon fill="#181818" points="250,803.9299,254,813.9299,258,803.9299,254,807.9299" style="stroke:#181818;stroke-width:1.0;"/><line style="stroke:#181818;stroke-width:1.0;" x1="254" x2="254" y1="1184.6405" y2="1204.6405"/><polygon fill="#181818" points="250,1194.6405,254,1204.6405,258,1194.6405,254,1198.6405" style="stroke:#181818;stroke-width:1.0;"/><!--SRC=[bP9BJyCm383l-HM-jTqweVNOKIuy92u30JUOfh1QdKMQJKagD1x_7QSffMD24psaIVJvYsF7lf3UIYDhM6rqIOus-jxj5CArjbJY1ScQzuNjiVDlx5ANWLmhqYY4oAsJnir4FXentBZHA0Uggsdgnoo5UGelQ3IgfQKtJC5ILSiJ7_XOBRSxmw1g_miee4ADHZhq6xAcqiP15GqKqIzXr1gZpfmywU3DEc_sfpVxb_U3CrxldWsLNiBE5IeLUpGEzqYI6Ip4wvguE371QG7poJG1iX0_c0OJ0VmD5E_qoPQGevyl0a3ZyKAWBZlHbLIMO_Uy2dNbrlsnnuu8tF4ZkDEkxJ7SuND3geGhiwdXDfJiFSHk6iTDPglNpt-K1LyspFjCpmeuk7yBDrkxaWhREXTj1KEkIMSxX8QBU9fdUsIV4jK6MoBif30CuuPgb0ouA84nTDKPQ6Wo2Qk3odpwnttJElth3dP-mZcJCo6-0000]--></g></svg>